<?xml version="1.0" encoding="UTF-8" standalone="no"?>
<svg id="Layer_1" xmlns:rdf="http://www.w3.org/1999/02/22-rdf-syntax-ns#" xmlns="http://www.w3.org/2000/svg" enable-background="new 0 0 566.9 566.9" xml:space="preserve" viewBox="0 0 499.99998 499.99999" height="500" width="500" version="1.1" y="0px" x="0px" xmlns:cc="http://creativecommons.org/ns#" xmlns:dc="http://purl.org/dc/elements/1.1/"><polygon id="polygon4154" points="134.1 497.4 134.1 466.3 175.7 466.3 175.7 497.4 181.4 497.4 181.4 430.3 175.7 430.3 175.7 461 134.1 461 134.1 430.3 128.4 430.3 128.4 430.7 128.4 497.4" transform="matrix(.70258 0 0 .70258 52.789 47.539)"/><path id="path4156" d="m242.06 353.58h15.667c8.3607 0 13.068 3.7939 13.068 9.9063v0.14052c0 6.534-5.6206 10.328-13.279 10.398h-15.457v-20.445zm19.321 23.396c7.6581-1.1944 13.419-5.6909 13.419-13.489v-0.14052c0-3.3724-1.3349-6.6042-3.5832-8.8525-2.8806-2.8806-7.5176-4.637-13.279-4.637h-19.813v0.28103 46.792h4.0047v-19.321h14.824l14.824 19.321h5.0586l-15.457-19.953z"/><path id="path4158" d="m314.22 364.54v0.14051c0 6.7447-5.6909 11.171-14.262 11.171h-12.506v-22.272h12.927c8.3607 0.0703 13.841 3.7939 13.841 10.96m-13.56-14.684h-17.143v0.28103 46.792h4.0047v-17.354h12.295c9.7658 0 18.407-5.1288 18.407-15.105v-0.0703c0-9.1335-7.2365-14.473-17.564-14.543"/><path id="path4160" d="m198.64 377.12 10.468-22.904 10.398 22.904h-20.867zm12.365-27.541h-3.6534l-21.91 47.42h4.1452l5.9719-13.208 1.4052-3.0211h24.098l1.4052 3.0211 5.9719 13.208h4.356l-21.78-47.424z"/><path id="path4162" d="m326.58 377.12 10.468-22.904 10.398 22.904h-20.867zm12.365-27.541h-3.6534l-21.92 47.42h4.1452l5.9719-13.208 1.4052-3.0211h24.169l1.4052 3.0211 5.9719 13.208h4.356l-21.85-47.424z"/><path id="path4164" d="m157.05 254.52 47.845-27.611c2.8806-1.6862 4.7073-0.28103 5.6206 1.3349 0.91334 1.6159 1.2646 3.8642-1.616 5.5504l-47.845 27.611 1.8267 3.0913 47.635-27.471c3.9344-2.2482 5.3396-5.2693 4.2154-8.6417l15.386-8.9227c1.0539 0.4918 2.3185 0.42154 3.3724-0.14052 1.7564-0.9836 2.3888-3.3021 1.3349-5.0586-0.98361-1.7564-3.3021-2.3888-5.0585-1.3349-1.0539 0.63231-1.6862 1.6862-1.8267 2.8103l-15.457 8.9227c-2.5995-2.8806-5.6909-3.0211-9.7658-0.70258l-47.494 27.4 1.8267 3.1616z"/><path id="path4166" d="m194.85 295.2 27.611-47.845c1.6862-2.8806 3.9344-2.5995 5.5504-1.6862 1.6159 0.98362 3.0211 2.7401 1.3349 5.6206l-27.611 47.845 3.0913 1.8267 27.471-47.635c2.2482-3.9344 1.9672-7.1663-0.70256-9.6253l8.9227-15.386c1.1241-0.14052 2.2482-0.77284 2.8103-1.8267 0.9836-1.7564 0.42154-4.0047-1.3349-5.0586-1.7564-0.98362-4.0047-0.42155-5.0586 1.3349-0.63231 1.0539-0.63231 2.3185-0.14051 3.3724l-8.9227 15.457c-3.6534-1.1944-6.4637 0.21078-8.7822 4.2857l-27.4 47.494 3.1616 1.8267z"/><path id="path4168" d="m247.96 311.57v-55.222c0-3.3724 2.1077-4.2154 4.0047-4.2154s4.0047 0.84309 4.0047 4.2154v55.222h3.5831v-55.012c0-4.5668-1.897-7.2365-5.4098-8.0094v-17.775c0.91335-0.63232 1.5457-1.7564 1.5457-3.0211 0-2.0375-1.6862-3.6534-3.7237-3.6534s-3.6534 1.6159-3.6534 3.6534c0 1.2646 0.63231 2.3185 1.5457 3.0211v17.845c-3.7236 0.8431-5.4801 3.4426-5.4801 8.0796v54.871h3.5831z"/><path id="path4170" d="m302.13 299.2-27.611-47.845c-1.6862-2.8806-0.28103-4.7073 1.3349-5.6206 1.6159-0.91335 3.8642-1.2646 5.5503 1.6159l27.611 47.845 3.0914-1.7564-27.471-47.635c-2.2482-3.9344-5.2693-5.3396-8.6417-4.2155l-8.9227-15.457c0.4918-1.0539 0.4918-2.3185-0.14052-3.3724-1.0539-1.7564-3.3021-2.3888-5.0586-1.3349-1.7564 0.9836-2.3888 3.3021-1.3349 5.0586 0.63231 1.0539 1.6862 1.6862 2.8103 1.8267l8.9227 15.457c-2.8806 2.5995-3.0211 5.6909-0.70257 9.7658l27.4 47.494 3.1616-1.8267z"/><path id="path4172" d="m342.88 261.33-47.845-27.611c-2.8806-1.6862-2.5995-3.9344-1.6862-5.5504 0.91335-1.6159 2.74-3.0211 5.6206-1.3349l47.845 27.611 1.8267-3.0913-47.635-27.471c-3.9344-2.2482-7.2365-1.9672-9.6253 0.70257l-15.45-8.91c-0.0703-1.1241-0.77282-2.2482-1.8267-2.8806-1.7564-0.98361-4.0047-0.42154-5.0586 1.3349-0.98359 1.7564-0.42153 4.0047 1.3349 5.0585 1.0539 0.63232 2.3185 0.63232 3.3724 0.14052l15.457 8.9227c-1.1944 3.6534 0.21077 6.4637 4.2857 8.7822l47.494 27.4 1.897-3.0913z"/><path id="path4174" d="m359.18 208.29h-55.222c-3.3724 0-4.2154-2.1077-4.2154-4.0047s0.84309-4.0047 4.2154-4.0047h55.222v-3.5831h-54.941c-4.5667 0-7.2365 1.897-8.0094 5.4098h-17.775c-0.70258-0.91335-1.7564-1.5457-3.0211-1.5457-2.0375 0-3.7236 1.6862-3.7236 3.7236 0 2.0375 1.6862 3.6534 3.7236 3.6534 1.2646 0 2.3185-0.63232 3.0211-1.5457h17.845c0.84308 3.7237 3.4426 5.4801 8.0796 5.4801h54.871v-3.5831z"/><path id="path4176" d="m346.82 154.12-47.845 27.611c-2.8806 1.6862-4.7073 0.28103-5.6206-1.3349-0.91335-1.6159-1.2646-3.8642 1.6862-5.5504l47.845-27.611-1.8267-3.0913-47.635 27.471c-3.9344 2.2482-5.3396 5.2693-4.2154 8.6417l-15.386 8.9227c-1.0539-0.49179-2.3185-0.49179-3.3724 0.14052-1.7564 1.0539-2.3888 3.3021-1.3349 5.0585 0.98361 1.7564 3.3021 2.3888 5.0586 1.3349 1.0539-0.6323 1.6862-1.6862 1.8267-2.8103l15.457-8.9227c2.5995 2.8806 5.6909 3.0211 9.7658 0.70258l47.494-27.4-1.897-3.1616z"/><path id="path4178" d="m309.02 113.37-27.611 47.845c-1.6862 2.8806-3.9344 2.5995-5.5503 1.6862-1.6159-0.91335-3.0211-2.74-1.3349-5.6206l27.611-47.916-3.0913-1.8267-27.471 47.635c-2.2482 3.9344-1.9672 7.1663 0.70257 9.6253l-8.9227 15.457c-1.1241 0.14052-2.2482 0.77284-2.8103 1.8267-0.98361 1.7564-0.42155 4.0047 1.3349 5.0586s4.0047 0.42155 4.9883-1.3349c0.63232-1.0539 0.63232-2.3185 0.14052-3.3724l8.9227-15.457c3.6534 1.1944 6.4637-0.21077 8.7822-4.2857l27.4-47.494-3.0914-1.8267z"/><path id="path4180" d="m255.9 97v55.222c0 3.3724-2.1077 4.2155-3.9344 4.2155-1.897 0-4.0047-0.8431-4.0047-4.2155v-55.222h-3.5832v55.012c0 4.5667 1.897 7.2365 5.4098 8.0094v17.775c-0.91335 0.70258-1.5457 1.7564-1.5457 3.0211 0 2.0375 1.6862 3.7236 3.7236 3.7236 2.0375 0 3.6534-1.6862 3.6534-3.7236 0-1.2646-0.63232-2.3185-1.5457-3.0211v-17.845c3.7939-0.77284 5.4801-3.4426 5.4801-8.0796v-54.871h-3.6534z"/><path id="path4182" d="m201.74 109.44 27.611 47.845c1.6862 2.8806 0.28104 4.7073-1.3349 5.6206-1.6159 0.91335-3.8642 1.2646-5.5504-1.6862l-27.611-47.845-3.0913 1.7564 27.471 47.635c2.2482 3.9344 5.2693 5.2693 8.6417 4.2155l8.9227 15.457c-0.4918 1.0539-0.42156 2.3185 0.14051 3.3724 1.0539 1.7564 3.3021 2.3888 5.0586 1.3349 1.7564-0.98361 2.3888-3.3021 1.3349-5.0586-0.63232-1.0539-1.6862-1.6862-2.8103-1.8267l-8.9227-15.457c2.8805-2.5995 3.0211-5.6909 0.70256-9.7658l-27.4-47.494-3.1616 1.897z"/><path id="path4184" d="m161.06 147.23 47.845 27.611c2.8806 1.6862 2.5996 3.9344 1.6862 5.5504-0.9836 1.6159-2.74 3.0211-5.6206 1.3349l-47.845-27.611-1.8267 3.0913 47.635 27.471c3.9344 2.2482 7.1663 1.9672 9.6253-0.63232l15.386 8.9227c0.14051 1.1241 0.77283 2.2482 1.8267 2.8806 1.7564 0.98361 4.0047 0.42155 5.0585-1.3349 1.0539-1.7564 0.42155-4.0047-1.3349-5.0585-1.0539-0.63233-2.3185-0.63233-3.3724-0.14052l-15.457-8.9227c1.1944-3.6534-0.21077-6.4637-4.2857-8.7822l-47.494-27.4-1.8267 3.0211z"/><path id="path4186" d="m144.69 200.35h55.222c3.3724 0 4.2155 2.1077 4.2155 4.0047 0 1.8969-0.84309 4.0047-4.2155 4.0047h-55.222v3.5831h54.941c4.5667 0 7.2365-1.897 8.0094-5.4098h17.775c0.63232 0.91335 1.7564 1.5457 3.0211 1.5457 2.0375 0 3.7236-1.6159 3.7236-3.6534s-1.6862-3.6534-3.7236-3.6534c-1.2646 0-2.3185 0.6323-3.0211 1.5457h-17.845c-0.84309-3.7939-3.4426-5.4801-8.0796-5.4801h-54.871l0.0703 3.5129z"/></svg>
