<svg xmlns="http://www.w3.org/2000/svg" xmlns:xlink="http://www.w3.org/1999/xlink" width="250" height="156">
  <path fill="#ED174C" d="M229.604 83.799c1.333-2.691 8.628-9.564-.383-25.896 1.623-5.673 7.692-32.664 7.692-32.664h-11.821l-1.992 2.414c-7.269-4.104-17.427-2.85-22.914 2.018-2.64-3.918-8.232-4.432-9.815-4.432h-51.424c-1.188 0-19.354-.198-23.614 4.01 1.583-3.06 3.43-4.01 3.43-4.01H89.529l4.168-20.04-21.41 20.04h-5.871c-1.464 0-2.217-.818-1.675-2.982H45.994l-7.361 20.448H10.54L32.222 60.37l-4.783 12.678L5 99.181l31.919-10.963c-.805 3.509-.555 8.442 1.873 13.034-2.428 4.327-16.444 29.841-13.918 49.55 4.063-1.346 47.057-18.021 47.057-18.021v-3.377c11.003 4.38 25.686 4.485 42.043-1.108 13.126-4.512 31.728-7.519 52.544-3.377 10.527 2.084 13.773 4.248 17.784 5.66a30.693 30.693 0 0 0 1.583 1.966c6.107 7.505 15.408 12.308 25.844 12.308 18.376 0 33.271-14.894 33.271-33.298 0-12.177-5.606-21.979-15.396-27.756"/>
  <path fill="none" stroke="#ED174C" stroke-width="2.094" stroke-miterlimit="10" d="M229.604 83.799c1.333-2.691 8.628-9.564-.383-25.896 1.623-5.673 7.692-32.664 7.692-32.664h-11.821l-1.992 2.414c-7.269-4.104-17.427-2.85-22.914 2.018-2.64-3.918-8.232-4.432-9.815-4.432h-51.424c-1.188 0-19.354-.198-23.614 4.01 1.583-3.06 3.43-4.01 3.43-4.01H89.529l4.168-20.04-21.41 20.04h-5.871c-1.464 0-2.217-.818-1.675-2.982H45.994l-7.361 20.448H10.54L32.222 60.37l-4.783 12.678L5 99.181l31.919-10.963c-.805 3.509-.555 8.442 1.873 13.034-2.428 4.327-16.444 29.841-13.918 49.55 4.063-1.346 47.057-18.021 47.057-18.021v-3.377c11.003 4.38 25.686 4.485 42.043-1.108 13.126-4.512 31.728-7.519 52.544-3.377 10.527 2.084 13.773 4.248 17.784 5.66a30.693 30.693 0 0 0 1.583 1.966c6.107 7.505 15.408 12.308 25.844 12.308 18.376 0 33.271-14.894 33.271-33.298 0-12.177-5.606-21.979-15.396-27.756z"/>
  <path fill="#051922" d="M229.604 83.799c1.333-2.691 8.628-9.564-.383-25.896 1.623-5.673 7.692-32.664 7.692-32.664h-11.821l-1.992 2.414c-7.269-4.104-17.427-2.85-22.914 2.018-2.64-3.918-8.232-4.432-9.815-4.432h-51.424c-1.188 0-19.354-.198-23.614 4.01 1.583-3.06 3.43-4.01 3.43-4.01H89.529l4.168-20.04-21.41 20.04h-5.871c-1.464 0-2.217-.818-1.675-2.982H45.994l-7.361 20.448H10.54L32.222 60.37l-4.783 12.678L5 99.181l31.919-10.963c-.805 3.509-.555 8.442 1.873 13.034-2.428 4.327-16.444 29.841-13.918 49.55 4.063-1.346 47.057-18.021 47.057-18.021v-3.377c11.003 4.38 25.686 4.485 42.043-1.108 13.126-4.512 31.728-7.519 52.544-3.377 10.527 2.084 13.773 4.248 17.784 5.66a30.693 30.693 0 0 0 1.583 1.966c6.107 7.505 15.408 12.308 25.844 12.308 18.376 0 33.271-14.894 33.271-33.298 0-12.177-5.606-21.979-15.396-27.756"/>
  <path fill="none" stroke="#ED174C" stroke-width=".459" d="M229.604 83.799c1.333-2.691 8.628-9.564-.383-25.896 1.623-5.673 7.692-32.664 7.692-32.664h-11.821l-1.992 2.414c-7.269-4.104-17.427-2.85-22.914 2.018-2.64-3.918-8.232-4.432-9.815-4.432h-51.424c-1.188 0-19.354-.198-23.614 4.01 1.583-3.06 3.43-4.01 3.43-4.01H89.529l4.168-20.04-21.41 20.04h-5.871c-1.464 0-2.217-.818-1.675-2.982H45.994l-7.361 20.448H10.54L32.222 60.37l-4.783 12.678L5 99.181l31.919-10.963c-.805 3.509-.555 8.442 1.873 13.034-2.428 4.327-16.444 29.841-13.918 49.55 4.063-1.346 47.057-18.021 47.057-18.021v-3.377c11.003 4.38 25.686 4.485 42.043-1.108 13.126-4.512 31.728-7.519 52.544-3.377 10.527 2.084 13.773 4.248 17.784 5.66a30.693 30.693 0 0 0 1.583 1.966c6.107 7.505 15.408 12.308 25.844 12.308 18.376 0 33.271-14.894 33.271-33.298 0-12.177-5.606-21.979-15.396-27.756z"/>
  <path fill="#BA9653" d="M81.245 31.254H58.896c-2.744 0-2.044-2.666-2.005-2.851h-6.517L39.319 59.036h7.361c.792-1.767 2.956-11.898 18.853-17.677l5-.817 5.514-.924 3.245-.527c1.927-.146 5.159-.343 7.56-.343 0 0-10.607 14.55-15.831 22.229-3.048 4.432-15.396 23.152-18.377 30.013 2.48 4.591 7.31 9.182 15.581 12.651 2.071-5.897 6.793-18.642 10.699-27.295 7.281-16.028 23.125-41.358 27.388-45.091H81.245"/>
  <path fill="#FFF" d="M115.624 61.173c1.794 4.697-3.563 26.834-6.847 31.346-.436.606-2.23 3.97-4.498 3.285-1.901-.581-2.613-2.995-2.059-7.507.924-7.783 5.145-22.057 5.145-22.057 2.533-6.939 6.86-8.747 8.259-5.067m16.647-24.748l1.162-5.171s-11.61-.119-18.932 4.59c-6.253 4.011-8.509 5.356-17.268 16.965-3.206 4.274-9.129 18.1-8.113 31.318 1.359 17.295 12.625 16.095 16.741 15.33 3.588-.634 7.123-2.164 11.53-6.175 3.377-3.126 9.604-11.846 9.577-24.3 0-8.997-3.193-13.034-5.673-14.063-4.433-1.834-8.047-.198-10.276 1.899 6.926-16.858 17.415-20.182 21.252-20.393z"/>
  <path fill="#FFF" d="M134.911 31.254l-1.215 5.065h2.956l-7.994 46.001-6.425 8.166 2.401-3.113s18.613-8.205 30.936-8.892c.817-.263 1.584-.58 2.269-.554.66-3.297 2.402-13.957 2.402-13.957h-4.961c-1.214 5.091-3.983 8.337-9.735 11.213-3.682 1.847-5.727 2.796-5.727 2.796l3.853-21.266c6.135.804 4.142 6.965 4.142 6.965h4.038l3.654-17.705h-4.183c-.923 3.272-1.49 6.729-6.912 6.386.554-3.258 2.743-16.042 2.743-16.042h7.521c2.4 0 4.643 4.459 3.561 9.34h5.237l2.613-14.406h-31.174"/>
  <path fill="#BA9653" d="M113.592 61.279c1.794 4.683-3.563 26.833-6.833 31.345-.448.606-2.244 3.958-4.512 3.285-1.887-.567-2.613-2.995-2.084-7.507.95-7.797 5.171-22.057 5.171-22.057 2.533-6.939 6.873-8.746 8.258-5.066m16.569-24.854l1.254-5.171s-11.623 0-18.958 4.67c-4.814 3.114-7.256 4.631-12.136 10.5A333.517 333.517 0 0 0 89.872 64.26c-1.925 5.831-3.324 12.967-2.796 19.947 1.373 17.334 12.639 16.107 16.755 15.355 3.588-.647 7.123-2.164 11.503-6.201 3.377-3.086 9.604-11.819 9.604-24.273-.027-8.997-3.206-13.034-5.673-14.063-4.458-1.821-8.047-.185-10.263 1.886 6.886-16.859 17.32-20.275 21.159-20.486zM133.195 31.254l-1.16 5.171h2.585l-8.02 46.014-2.639 1.332-1.728 6.715s18.772-9.788 33.336-12.005c.687-3.297 2.639-14.511 2.639-14.511h-4.974c-1.201 5.091-3.971 8.443-9.723 11.319-3.681 1.847-5.726 2.796-5.726 2.796l3.853-21.279c6.12.831 4.379 6.887 4.379 6.887h4.038l3.402-17.718h-4.155c-.936 3.272-1.491 6.834-6.926 6.478l2.744-16.028h7.521c2.387 0 4.67 4.38 3.588 9.248h5.224l2.56-14.419h-30.818"/>
  <path fill="#FFF" d="M231.716 31.913l-3.457 14.564h-5.54c.527-2.52-.159-9.802-4.789-10.409-5.818-.726-7.005 3.707-4.948 7.137 1.176 1.967 10.582 12.902 13.035 17.309 4.591 8.298 2.955 15.356 1.741 17.494-5.594 9.736-13.76 6.424-17.335 5.698-3.588-.737-6.952-5.197-6.952-5.197l-2.52 3.984-1.57-.476.712-16.41h4.315c.29 4.313 3.086 13.284 8.812 13.021 2.546-.119 4.512-2.731 4.802-5.449.396-3.746-2.031-7.414-10.58-17.637-5.844-6.966-7.532-14.631-4.155-19.697 2.678-4.011 6.952-6.095 11.622-5.844 6.966.382 9.776 5.013 9.776 5.013l2.334-3.1h4.697M187.534 43.708c-.778 3.377-2.084 7.334-5.646 7.69-3.574.382-4.881-.171-4.881-.171l2.56-14.907h5.329c2.032-.001 3.377 4.01 2.638 7.388m11.966-1.096c.634-9.669-7.098-11.358-10.923-11.358h-21.135l-1.002 5.091 3.245-.026-6.293 35.989h-3.271l-.937 5.303s5.593-.581 17.466-.33c.331-1.253.857-5 .857-5l-4.445.053s2.507-13.587 2.784-15.223c2.546-.053 4.683 1.847 4.973 4.867.58 5.66-.594 16.266 12.639 18.615.58.013 1.107.264 1.979.396a115.314 115.314 0 0 0 1.095-5.356c-6.107-1.688-4.907-6.385-4.788-10.897.184-7.718-3.72-9.26-6.293-10.237 4.325-.529 13.403-1.874 14.049-11.887z"/>
  <path fill="#BA9653" d="M229.881 31.886l-3.654 14.565h-5.539c.526-2.52-.186-9.669-4.777-10.277-5.83-.751-7.018 3.708-4.96 7.138 1.188 1.952 10.581 12.902 13.009 17.308 4.604 8.312 2.993 15.356 1.753 17.494-5.592 9.722-13.732 6.412-17.334 5.686-3.574-.726-6.926-5.185-6.926-5.185l-2.071 3.403-4.604-1.133 3.298-15.291h4.326c.252 4.313 3.087 13.417 8.8 13.153 2.52-.132 4.512-2.745 4.789-5.475.382-3.733-2.045-7.401-10.607-17.625-5.805-6.953-7.493-14.644-4.116-19.723 2.666-3.997 6.939-6.068 11.623-5.805 6.953.356 9.775 5.013 9.775 5.013l2.521-3.246h4.694M185.49 43.813c-.753 3.377-2.084 7.334-5.621 7.704-3.574.356-4.907-.199-4.907-.199l2.56-14.894h5.329c2.058.001 3.377 4.012 2.639 7.389m11.979-1.109c.817-10.013-7.098-11.45-10.938-11.45h-21.12l-.989 5.197 3.206-.026-6.175 35.856h-3.641l-1.029 5.805s5.923-1.055 17.81-.804c.316-1.253.845-5 .845-5l-4.313.053s2.426-13.482 2.704-15.118c2.533-.053 4.656 1.819 4.986 4.867.581 5.871-.291 16.609 14.563 18.43.027-.133.054-.291.08-.436.606-2.626 1.055-4.34 1.055-4.34-6.121-1.688-4.907-6.397-4.801-10.91.197-7.691-3.721-9.248-6.306-10.225 4.353-.54 13.257-1.899 14.063-11.899z"/>
  <path fill="#ED174C" d="M46.496 61.952l-.646.685-21.597 23.035 35.936-16.134 6.017 5.541c3.733-5.91 7.414-11.478 8.904-13.654 2.652-3.878 6.372-9.498 9.46-14.115h-7.31l6.306-25.633-23.402 25.632h-.277l-16.345-.014H26.965L39.9 57.374l6.596 4.578"/>
  <path fill="none" stroke="#ED174C" stroke-width=".459" d="M46.496 61.952l-.646.685-21.597 23.035 35.936-16.134 6.017 5.541c3.733-5.91 7.414-11.478 8.904-13.654 2.652-3.878 6.372-9.498 9.46-14.115h-7.31l6.306-25.633-23.402 25.632h-.277l-16.345-.014H26.965L39.9 57.374l6.596 4.578z"/>
  <path fill="#ED174C" d="M79.161 87.03l6.649 6.147-3.8-13.008c-.937 2.179-1.9 4.513-2.849 6.861"/>
  <path fill="none" stroke="#ED174C" stroke-width=".459" d="M79.161 87.03l6.649 6.147-3.8-13.008c-.937 2.179-1.9 4.513-2.849 6.861z"/>
  <path fill="#051922" d="M63.726 43.1s-4.196 2.164-6.795 4.209c-4.379 3.548-6.688 6.503-8.614 13.205h-9.472l-.989 2.124h12.203c2.084-8.297 5.541-13.007 9.829-15.328l3.838-4.21"/>
  <path fill="none" stroke="#051922" stroke-width=".459" d="M63.726 43.1s-4.196 2.164-6.795 4.209c-4.379 3.548-6.688 6.503-8.614 13.205h-9.472l-.989 2.124h12.203c2.084-8.297 5.541-13.007 9.829-15.328l3.838-4.21z"/>
  <path fill="#C4CED3" d="M44.662 57.189l-3.602-2.691-4.775-3.826h6.173l7.665-.08h2.151c.026-.025 3.403.08 3.403.08h5.726l16.648-18.508-5.013 18.508 4.987-.027 1.688.146 1.913.698-13.43 21.162-3.048-2.903-4.235-3.957-23.535 10.5 12.678-13.655s-3.508-3.336-3.482-3.43l-1.912-2.017"/>
  <path fill="none" stroke="#C4CED3" stroke-width=".459" d="M44.662 57.189l-3.602-2.691-4.775-3.826h6.173l7.665-.08h2.151c.026-.025 3.403.08 3.403.08h5.726l16.648-18.508-5.013 18.508 4.987-.027 1.688.146 1.913.698-13.43 21.162-3.048-2.903-4.235-3.957-23.535 10.5 12.678-13.655s-3.508-3.336-3.482-3.43l-1.912-2.017z"/>
  <path fill="#FFF" d="M64.925 127.887s-27.848 10.33-32.163 11.768l2.019 1.517 32.163-11.767c0-.964-.025-.989-.025-1.689-.607-.659-1.214-1.464-1.94-2.348-.001.752-.054 1.609-.054 2.519"/>
  <path fill="#051922" d="M205.488 53.812h.014-.014"/>
  <path fill="#FFF" d="M81.825 31.254l-2.506 8.061s5.923-.567 9.55-.567c0 0-10.607 14.55-15.831 22.229-3.034 4.432-15.382 23.152-18.364 30.013 2.48 4.591 6.358 11.068 14.618 14.591C72.484 96.003 77.049 85 80.954 76.347c7.255-16.028 23.139-41.358 27.413-45.091H81.825M74.833 31.254H60.929c-2.744 0-2.058-2.666-2.005-2.851h-6.517L39.372 59.036l1.531 1.478h7.414c.844-1.86 1.583-10.884 15.91-17.73l10.606-11.53"/>
  <path fill="#BA9653" d="M81.245 31.254H58.896c-2.744 0-2.044-2.666-2.005-2.851h-6.517L39.319 59.036h7.361c.792-1.767 2.956-11.898 18.853-17.677l5-.817 5.514-.924 3.245-.527c1.927-.146 5.159-.343 7.56-.343 0 0-10.607 14.55-15.831 22.229-3.048 4.432-15.396 23.152-18.377 30.013 2.48 4.591 7.31 9.182 15.581 12.651 2.071-5.897 6.793-18.642 10.699-27.295 7.281-16.028 23.125-41.358 27.388-45.091H81.245"/>
  <path fill="#C4CED3" d="M70.533 40.541l5.514-.924 2.005-7.453-7.519 8.377"/>
  <path fill="#FFF" d="M69.741 104.247c3.166-9.248 7.479-19.657 11.213-27.902 7.255-16.028 23.139-41.358 27.413-45.091h-2.057c-4.262 3.732-20.106 29.063-27.388 45.091-3.905 8.628-8.628 21.372-10.687 27.269.477.223.978.434 1.506.633"/>
  <defs>
    <path id="a" d="M46.496 61.952l-.646.685-21.597 23.035 35.936-16.134 6.017 5.541c3.733-5.91 7.414-11.478 8.904-13.654 2.652-3.878 6.372-9.498 9.46-14.115h-7.31l6.306-25.633-23.402 25.632h-.277l-16.345-.014H26.965L39.9 57.374l6.596 4.578M245 111.555c0 18.404-14.895 33.298-33.271 33.298-10.436 0-19.736-4.803-25.844-12.308a30.418 30.418 0 0 1-1.583-1.966c-4.011-1.412-7.257-3.576-17.784-5.66-20.816-4.142-39.418-1.135-52.544 3.377-16.358 5.594-31.041 5.488-42.043 1.108v3.377s-42.994 16.675-47.057 18.021c-2.526-19.709 11.49-45.223 13.918-49.55-2.428-4.592-2.678-9.525-1.873-13.034L5 99.181l22.439-26.134 4.783-12.678L10.54 42.704h28.093l7.361-20.448h18.747c-.542 2.164.211 2.982 1.675 2.982h5.871l21.41-20.04-4.168 20.04h29.234s-1.847.95-3.43 4.01c4.261-4.208 22.427-4.01 23.614-4.01h51.424c1.583 0 7.176.514 9.815 4.432 5.487-4.868 15.646-6.122 22.914-2.018l1.992-2.414h11.821s-6.069 26.991-7.692 32.664c9.011 16.332 1.716 23.205.383 25.896 9.79 5.778 15.396 15.58 15.396 27.757z"/>
  </defs>
  <clipPath id="b">
    <use xlink:href="#a" overflow="visible"/>
  </clipPath>
  <path clip-path="url(#b)" fill="#006BB6" d="M211.649 84.366c-4.155 0-6.042.315-9.551 1.979-4.367-.977-20.264-7.229-42.334-5.739-10.369.699-26.016 6.755-46.041 17.27-9.129 4.802-16.833 7.269-23.192 8.323-7.942 1.334-13.734.437-17.599-.817-14.511-4.71-20.633-12.375-22.031-19.155-3.192-15.368 14.485-27.717 15.053-28.43H64.49c-20.132 11.451-26.939 28.932-20.105 42.335 4.512 8.825 14.3 17.532 23.034 22.519 7.005 4.011 13.588 5.515 20.013 5.699 8.562.291 18.323-1.293 29.036-5.435 6.319-2.454 19.05-5.594 35.554-4.512 15.447 1.002 28.508 4.748 34.523 6.754 5.884 8.878 12.479 13.706 25.104 13.706 15.053 0 27.242-12.202 27.242-27.255s-12.189-27.242-27.242-27.242"/>
  <path clip-path="url(#b)" fill="none" stroke="#006BB6" stroke-width=".459" d="M211.649 84.366c-4.155 0-6.042.315-9.551 1.979-4.367-.977-20.264-7.229-42.334-5.739-10.369.699-26.016 6.755-46.041 17.27-9.129 4.802-16.833 7.269-23.192 8.323-7.942 1.334-13.734.437-17.599-.817-14.511-4.71-20.633-12.375-22.031-19.155-3.192-15.368 14.485-27.717 15.053-28.43H64.49c-20.132 11.451-26.939 28.932-20.105 42.335 4.512 8.825 14.3 17.532 23.034 22.519 7.005 4.011 13.588 5.515 20.013 5.699 8.562.291 18.323-1.293 29.036-5.435 6.319-2.454 19.05-5.594 35.554-4.512 15.447 1.002 28.508 4.748 34.523 6.754 5.884 8.878 12.479 13.706 25.104 13.706 15.053 0 27.242-12.202 27.242-27.255s-12.189-27.242-27.242-27.242z"/>
  <defs>
    <path id="c" d="M44.662 57.189l-3.602-2.691-4.775-3.826h6.173l7.665-.08h2.151c.026-.025 3.403.08 3.403.08h5.726l16.648-18.508-5.013 18.508 4.987-.027 1.688.146 1.913.698-13.43 21.162-3.048-2.903-4.235-3.957-23.535 10.5 12.678-13.655s-3.508-3.336-3.482-3.43l-1.912-2.017"/>
  </defs>
  <clipPath id="d">
    <use xlink:href="#c" overflow="visible"/>
  </clipPath>
  <path clip-path="url(#d)" fill="#006BB6" d="M211.649 84.366c-4.155 0-6.042.315-9.551 1.979-4.367-.977-20.264-7.229-42.334-5.739-10.369.699-26.016 6.755-46.041 17.27-9.129 4.802-16.833 7.269-23.192 8.323-7.942 1.334-13.734.437-17.599-.817-14.511-4.71-20.633-12.375-22.031-19.155-3.192-15.368 14.485-27.717 15.053-28.43H64.49c-20.132 11.451-26.939 28.932-20.105 42.335 4.512 8.825 14.3 17.532 23.034 22.519 7.005 4.011 13.588 5.515 20.013 5.699 8.562.291 18.323-1.293 29.036-5.435 6.319-2.454 19.05-5.594 35.554-4.512 15.447 1.002 28.508 4.748 34.523 6.754 5.884 8.878 12.479 13.706 25.104 13.706 15.053 0 27.242-12.202 27.242-27.255s-12.189-27.242-27.242-27.242"/>
  <path clip-path="url(#d)" fill="none" stroke="#D1D2D4" stroke-width=".459" d="M211.649 84.366c-4.155 0-6.042.315-9.551 1.979-4.367-.977-20.264-7.229-42.334-5.739-10.369.699-26.016 6.755-46.041 17.27-9.129 4.802-16.833 7.269-23.192 8.323-7.942 1.334-13.734.437-17.599-.817-14.511-4.71-20.633-12.375-22.031-19.155-3.192-15.368 14.485-27.717 15.053-28.43H64.49c-20.132 11.451-26.939 28.932-20.105 42.335 4.512 8.825 14.3 17.532 23.034 22.519 7.005 4.011 13.588 5.515 20.013 5.699 8.562.291 18.323-1.293 29.036-5.435 6.319-2.454 19.05-5.594 35.554-4.512 15.447 1.002 28.508 4.748 34.523 6.754 5.884 8.878 12.479 13.706 25.104 13.706 15.053 0 27.242-12.202 27.242-27.255s-12.189-27.242-27.242-27.242z"/>
  <defs>
    <path id="e" d="M195.345 88.772c-8.259 8.892-7.282 30.369-7.282 30.369s-33.918-10.871-62.954-2.876c-19.327 5.329-24.273 8.653-35.29 8.653-10.131 0-16.398-2.849-21.793-5.66-10.791-5.633-17.307-13.759-19.128-16.648-2.375-3.733-10.382-16.385 1.714-30.46-4.089 10.198-3.206 16.319 2.296 23.707 2.084 2.823 7.427 6.926 13.376 9.723 4.327 2.006 7.48 3.113 13.509 3.733 12.375 1.307 24.049-2.27 47.94-14.947 12.401-6.569 27.665-10.355 42.057-9.749 9.077.381 25.555 4.155 25.555 4.155"/>
  </defs>
  <clipPath id="f">
    <use xlink:href="#e" overflow="visible"/>
  </clipPath>
  <path clip-path="url(#f)" fill="#C4CED3" d="M195.345 88.772c-8.259 8.892-7.282 30.369-7.282 30.369s-33.918-10.871-62.954-2.876c-19.327 5.329-24.273 8.653-35.29 8.653-10.131 0-16.398-2.849-21.793-5.66-10.791-5.633-17.307-13.759-19.128-16.648-2.375-3.733-10.382-16.385 1.714-30.46-4.089 10.198-3.206 16.319 2.296 23.707 2.084 2.823 7.427 6.926 13.376 9.723 4.327 2.006 7.48 3.113 13.509 3.733 12.375 1.307 24.049-2.27 47.94-14.947 12.401-6.569 27.665-10.355 42.057-9.749 9.077.381 25.555 4.155 25.555 4.155"/>
  <path fill="none" stroke="#006BB6" stroke-width=".459" d="M195.345 88.772c-8.259 8.892-7.282 30.369-7.282 30.369s-33.918-10.871-62.954-2.876c-19.327 5.329-24.273 8.653-35.29 8.653-10.131 0-16.398-2.849-21.793-5.66-10.791-5.633-17.307-13.759-19.128-16.648-2.375-3.733-10.382-16.385 1.714-30.46-4.089 10.198-3.206 16.319 2.296 23.707 2.084 2.823 7.427 6.926 13.376 9.723 4.327 2.006 7.48 3.113 13.509 3.733 12.375 1.307 24.049-2.27 47.94-14.947 12.401-6.569 27.665-10.355 42.057-9.749 9.077.381 25.555 4.155 25.555 4.155z"/>
  <path fill="#006BB6" d="M121.982 112.689l1.188.606s4.697-1.135 7.889-1.913c25.804-6.358 53.48 2.639 53.48 2.639s-.738-.949-.158-5.619c0 0-27.36-8.391-54.457 1.478a647.926 647.926 0 0 1-7.942 2.809"/>
  <path fill="none" stroke="#006BB6" stroke-width=".459" d="M121.982 112.689l1.188.606s4.697-1.135 7.889-1.913c25.804-6.358 53.48 2.639 53.48 2.639s-.738-.949-.158-5.619c0 0-27.36-8.391-54.457 1.478a647.926 647.926 0 0 1-7.942 2.809z"/>
  <path fill="#006BB6" d="M109.846 111.555c-5.502 2.771-12.506 5.29-12.506 5.29l-.356 1.386s6.979-1.965 10.382-3.271c9.023-3.482 15.118-7.071 29.63-11.346 23.852-6.953 48.125 1.016 48.125 1.016s.33.027 1.307-5.065c0 0-25.713-7.876-50.685.368-10.805 3.588-18.907 8.153-25.897 11.622"/>
  <path fill="none" stroke="#006BB6" stroke-width=".459" d="M109.846 111.555c-5.502 2.771-12.506 5.29-12.506 5.29l-.356 1.386s6.979-1.965 10.382-3.271c9.023-3.482 15.118-7.071 29.63-11.346 23.852-6.953 48.125 1.016 48.125 1.016s.33.027 1.307-5.065c0 0-25.713-7.876-50.685.368-10.805 3.588-18.907 8.153-25.897 11.622z"/>
  <path fill="#006BB6" d="M120.293 101.252c9.129-5.014-9.709 5.699-9.709 5.699l-.093 1.201s8.878-4.513 9.539-4.816c3.588-1.82 10.83-5.791 22.744-8.72 25.131-6.187 46.094 1.741 46.094 1.741s0-1.135 2.822-4.103c0 0-27.413-8.456-52.373.172-10.766 3.733-12.164 5.039-19.024 8.826"/>
  <path fill="none" stroke="#006BB6" stroke-width=".459" d="M120.293 101.252c9.129-5.014-9.709 5.699-9.709 5.699l-.093 1.201s8.878-4.513 9.539-4.816c3.588-1.82 10.83-5.791 22.744-8.72 25.131-6.187 46.094 1.741 46.094 1.741s0-1.135 2.822-4.103c0 0-27.413-8.456-52.373.172-10.766 3.733-12.164 5.039-19.024 8.826z"/>
  <path fill="#BA9653" d="M44.147 105.988c-6.121 9.405-10.395 23.39-11.385 33.666 4.05-1.332 32.163-11.768 32.163-11.768 0-.937.053-1.741.053-2.52-9.854-5.618-15.949-12.294-20.831-19.378"/>
  <path fill="#ED174C" d="M78.29 50.646l2.375-3.364-3.404.027 6.358-25.594-23.561 25.594h-.172a15.63 15.63 0 0 0-4.155 3.363"/>
  <path fill="none" stroke="#ED174C" stroke-width=".459" d="M78.29 50.646l2.375-3.364-3.404.027 6.358-25.594-23.561 25.594h-.172a15.63 15.63 0 0 0-4.155 3.363"/>
  <path fill="#C4CED3" d="M60.928 57.216l.475-6.544 16.649-18.508-5.013 18.508-12.111 6.544"/>
  <path fill="none" stroke="#C4CED3" stroke-width=".459" d="M55.731 50.672h5.672l16.649-18.508-5.013 18.508 5.251-.026"/>
  <path fill="#FFF" d="M105.333 66.345s-4.221 14.26-5.171 22.057c-.528 4.512.197 6.939 2.084 7.507.606.197 1.188.066 1.714-.225-1.636-.713-2.269-3.113-1.741-7.388.924-7.783 5.145-22.057 5.145-22.057 1.346-3.681 3.179-5.897 4.828-6.623-1.925-.883-4.906 1.399-6.859 6.729"/>
  <path fill="#FFF" d="M121.296 54.921c-1.927-.805-3.721-.924-5.263-.66.989.052 2.097.29 3.231.766 2.468 1.028 5.646 5.066 5.673 14.063 0 12.454-6.228 21.188-9.604 24.273-4.38 4.037-7.915 5.554-11.503 6.201-.476.092-1.082.171-1.742.263a20.06 20.06 0 0 0 3.774-.368c3.588-.634 7.123-2.164 11.53-6.175 3.377-3.126 9.604-11.846 9.577-24.3 0-8.997-3.193-13.035-5.673-14.063M131.401 31.307l-1.24 5.118c-3.839.211-14.273 3.627-21.16 20.487a9.86 9.86 0 0 1 2.796-1.86c6.887-15.33 16.78-18.442 20.474-18.627l1.162-5.171c.001 0-.766-.027-2.032.053M145.121 36.425l-2.744 16.028a9.63 9.63 0 0 0 2.11-.092h-.078c.528-3.073 2.532-14.749 2.718-15.937l-2.006.001M137.786 78.086s.766-.355 2.217-1.055l3.562-19.709a6.733 6.733 0 0 0-1.926-.515l-3.853 21.279M164.013 31.254l-2.56 14.406h2.018l2.613-14.406h-2.071M155.279 63.971h2.929s-1.952 11.213-2.639 14.511c.817-.263 1.584-.58 2.269-.554.66-3.297 2.402-13.957 2.402-13.957h-4.961M153.458 45.976l-3.402 17.704h1.794l3.654-17.704h-2.046"/>
  <path fill="#ED174C" d="M113.962 47.309H99.753a423.239 423.239 0 0 0-4.869 8.086l19.078-8.086"/>
  <path fill="none" stroke="#ED1A3A" stroke-width=".459" d="M113.962 47.309H99.753a423.239 423.239 0 0 0-4.869 8.086l19.078-8.086z"/>
  <path fill="#ED174C" d="M113.962 47.309H99.753a423.239 423.239 0 0 0-4.869 8.086l19.078-8.086"/>
  <defs>
    <path id="g" d="M81.245 31.254H58.896l-4.459 11.701s-4.801 4.182 11.096-1.597l2.783-1.346 9.946-8.522 1.029 7.6c1.927-.146 7.56-.343 7.56-.343l19.459-7.493H81.245"/>
  </defs>
  <clipPath id="h">
    <use xlink:href="#g" overflow="visible"/>
  </clipPath>
  <path clip-path="url(#h)" fill="#ED174C" d="M83.619 21.715L60.058 47.309h-.172a15.63 15.63 0 0 0-4.155 3.363h5.672l16.648-18.508-5.013 18.508 5.251-.027 2.375-3.364-3.404.027 6.359-25.593"/>
  <path clip-path="url(#h)" fill="none" stroke="#ED1A3A" stroke-width=".459" d="M83.619 21.715L60.058 47.309h-.172a15.63 15.63 0 0 0-4.155 3.363h5.672l16.648-18.508-5.013 18.508 5.251-.027 2.375-3.364-3.404.027 6.359-25.593z"/>
  <path fill="#FFF" d="M177.521 36.425l-2.56 14.894s1.28.528 4.617.224c-1.847 0-2.572-.316-2.572-.316l2.546-14.802h-2.031M173.828 57.216c-.278 1.636-2.704 15.118-2.704 15.118l1.938-.026c.079-.317 2.189-11.873 2.704-14.737a5.56 5.56 0 0 0-1.938-.355M199.5 42.612c.634-9.669-7.098-11.358-10.923-11.358h-1.398c4.01.158 11.055 1.979 10.29 11.45-.806 10-9.71 11.359-14.063 11.899 2.585.977 6.503 2.533 6.306 10.225-.106 4.512-1.32 9.221 4.801 10.91 0 0-.448 1.714-1.055 4.34-.026.145-.053.303-.08.436a15.43 15.43 0 0 1-1.199-.186c.409.106.83.212 1.279.265.58.013 1.107.264 1.979.396a115.314 115.314 0 0 0 1.095-5.356c-6.107-1.688-4.907-6.385-4.788-10.897.184-7.718-3.72-9.26-6.293-10.237 4.325-.529 13.403-1.874 14.049-11.887M174.606 77.255c.673 0 1.358 0 2.044.027.331-1.253.857-5 .857-5l-2.07.027c.001.184-.528 3.692-.831 4.946M212.89 30.119c6.953.356 9.775 5.013 9.775 5.013l1.029-1.346c-1.359-1.398-4.129-3.523-8.786-3.787a11.232 11.232 0 0 0-2.494.105c.172.015.331.015.476.015M231.716 31.913h-1.835l-3.654 14.538h-3.508v.026h5.54l3.457-14.564M211.201 78.746c.33-.027.647-.08.937-.185-4.973-.831-7.467-8.918-7.729-12.955h-2.007c.251 4.314 3.086 13.404 8.799 13.14M201.452 78.614l-2.071 3.403 1.57.476 1.608-2.56a24.626 24.626 0 0 1-1.107-1.319M66.918 127.715c-.607-.659-1.214-1.464-1.94-2.348 0 .423-.026.831-.039 1.293-.014.396-.014.818-.014 1.227 0 0-.039.027-.066.027-1.318.501-28.139 10.436-32.097 11.74l2.019 1.517 32.163-11.767c-.001-.964-.026-.989-.026-1.689M212.981 43.205c-1.7-2.822-1.174-6.345 2.322-7.084-5.29-.355-6.345 3.866-4.354 7.19 1.188 1.952 10.581 12.902 13.009 17.308 4.604 8.312 2.993 15.356 1.753 17.494-2.663 4.618-5.896 6.306-8.943 6.702 3.588.105 7.717-1.135 10.989-6.807 1.214-2.137 2.85-9.195-1.741-17.494-2.453-4.407-11.859-15.342-13.035-17.309M79.319 39.314s4.036-.396 7.493-.515c.026-.027.039-.053.039-.053-2.375 0-5.541.184-7.466.343l-.066.225M58.896 31.254h2.032c-2.744 0-2.058-2.666-2.005-2.851h-2.032c-.038.185-.738 2.851 2.005 2.851"/>
  <defs>
    <path id="i" d="M44.662 57.189l-3.602-2.691-4.775-3.826h6.173l7.665-.08h2.151c.026-.025 3.403.08 3.403.08 5.159.541 22.005-1.148 25.95.817l-13.43 21.162-3.048-2.903-4.235-3.957-10.857-3.154s-3.508-3.336-3.482-3.43l-1.913-2.018"/>
  </defs>
  <clipPath id="j">
    <use xlink:href="#i" overflow="visible"/>
  </clipPath>
  <path clip-path="url(#j)" fill="none" stroke="#D1D2D4" stroke-width=".459" d="M65.533 41.358l5-.817 5.514-.924 3.245-.527c1.927-.146 5.159-.343 7.56-.343 0 0-10.607 14.55-15.831 22.229-3.048 4.432-15.396 23.152-18.377 30.013 2.48 4.591 7.31 9.182 15.581 12.651 2.071-5.897 6.793-18.642 10.699-27.295 7.281-16.028 23.125-41.358 27.388-45.091H58.897c-2.744 0-2.044-2.666-2.005-2.851h-6.517L39.319 59.036"/>
  <defs>
    <path id="k" d="M65.149 69.748l-4.235-3.957-23.535 10.5 12.678-13.655s-3.508-3.336-3.482-3.43l-1.913-2.019-3.602-2.691-4.775-3.826h6.173l7.665-.08h2.151c.026-.025 3.403.08 3.403.08h5.726l16.648-18.508-5.013 18.508 4.987-.027 1.688.146 1.913.698s1.068-1.345 2.942-4.181H77.26l6.306-25.633-23.402 25.636h-.277l-16.345-.014H26.965L39.9 57.374l6.595 4.578-.646.685-21.596 23.035 35.936-16.134 6.017 5.541c.58-.911 1.161-1.834 1.714-2.692l-2.771-2.639"/>
  </defs>
  <clipPath id="l">
    <use xlink:href="#k" overflow="visible"/>
  </clipPath>
  <path clip-path="url(#l)" fill="none" stroke="#ED1A3A" stroke-width=".459" d="M86.851 38.747S76.244 53.297 71.02 60.976c-3.048 4.432-15.396 23.152-18.377 30.013 2.48 4.591 7.31 9.182 15.581 12.651 2.071-5.897 6.793-18.642 10.699-27.295 7.281-16.028 23.125-41.358 27.388-45.091H58.897c-2.744 0-2.044-2.666-2.005-2.851h-6.517L39.319 59.036"/>
  <path clip-path="url(#l)" fill="#006BB6" d="M211.649 84.366c-4.155 0-6.042.315-9.551 1.979-4.367-.977-20.264-7.229-42.334-5.739-10.369.699-26.016 6.755-46.041 17.27-9.129 4.802-16.833 7.269-23.192 8.323-7.942 1.334-13.734.437-17.599-.817-14.511-4.71-20.633-12.375-22.031-19.155-3.192-15.368 14.485-27.717 15.053-28.43H64.49c-20.132 11.451-26.939 28.932-20.105 42.335 4.512 8.825 14.3 17.532 23.034 22.519 7.005 4.011 13.588 5.515 20.013 5.699 8.562.291 18.323-1.293 29.036-5.435 6.319-2.454 19.05-5.594 35.554-4.512 15.447 1.002 28.508 4.748 34.523 6.754 5.884 8.878 12.479 13.706 25.104 13.706 15.053 0 27.242-12.202 27.242-27.255s-12.189-27.242-27.242-27.242"/>
  <path clip-path="url(#l)" fill="none" stroke="#ED174C" stroke-width=".459" d="M211.649 84.366c-4.155 0-6.042.315-9.551 1.979-4.367-.977-20.264-7.229-42.334-5.739-10.369.699-26.016 6.755-46.041 17.27-9.129 4.802-16.833 7.269-23.192 8.323-7.942 1.334-13.734.437-17.599-.817-14.511-4.71-20.633-12.375-22.031-19.155-3.192-15.368 14.485-27.717 15.053-28.43H64.49c-20.132 11.451-26.939 28.932-20.105 42.335 4.512 8.825 14.3 17.532 23.034 22.519 7.005 4.011 13.588 5.515 20.013 5.699 8.562.291 18.323-1.293 29.036-5.435 6.319-2.454 19.05-5.594 35.554-4.512 15.447 1.002 28.508 4.748 34.523 6.754 5.884 8.878 12.479 13.706 25.104 13.706 15.053 0 27.242-12.202 27.242-27.255s-12.189-27.242-27.242-27.242z"/>
  <path fill="#231F20" d="M211.649 82.598c-7.77 0-15.092 3.021-20.58 8.522-5.474 5.501-8.508 12.797-8.508 20.58 0 7.744 3.034 15.052 8.508 20.554 5.488 5.501 12.811 8.51 20.58 8.51 16.056 0 29.09-13.021 29.09-29.063s-13.034-29.103-29.09-29.103"/>
  <path fill="#051922" d="M240.449 111.7c0 7.665-3.009 14.907-8.443 20.343-5.436 5.448-12.664 8.456-20.356 8.456-7.704 0-14.934-3.008-20.382-8.43-5.436-5.448-8.442-12.704-8.442-20.369 0-7.705 3.007-14.934 8.442-20.383 5.448-5.421 12.678-8.442 20.382-8.442 15.87 0 28.799 12.929 28.799 28.825"/>
  <path fill="#BA9653" d="M218.154 118.837l-3.271.08c-9.855.211-20.027.408-29.262-3.602-.211 3.693 1.636 7.309 3.905 11.292 5.237 9.182 17.085 8.152 26.464 4.103 4.459-1.886 8.152-4.762 11.371-8.772-2.637-2.796-6.305-3.114-9.207-3.101M233.074 96.991c-2.757-5.12-8.14-8.562-12.467-9.882 3.008 2.032 4.986 5.066 6.622 7.56 1.161 1.86 2.098 3.904 2.995 5.896 1.042 2.375 2.15 4.815 3.733 6.939 1.241-3.482.938-7.097-.883-10.513M236.465 103.165c.065 2.335-.449 4.657-1.069 6.239.687 1.068 1.411 1.848 2.599 2.665.026-2.453-.607-6.042-1.53-8.904M237.771 114.378c-1.068-.634-2.097-1.569-2.955-2.625-.276 1.082-1.095 3.483-1.438 4.143 1.544 2.335 2.402 4.273 2.626 5.884.632-1.847 1.885-5.739 1.767-7.402M234.697 123.547c-.08-1.188-.687-3.826-2.27-5.792-.554 1.148-1.768 2.942-2.73 4.169 1.385 3.285 1.2 6.372-.542 9.617 2.639-2.348 5.7-6.041 5.542-7.994"/>
  <path fill="#BA9653" d="M228.259 123.679c-.343.369-.976 1.082-1.346 1.478-3.825 4.116-8.892 6.966-15.937 9.024-3.588 1.028-7.889 1.318-12.202.844 6.372 3.47 14.563 4.182 21.596 1.794l.237-.079c1.663-.554 3.377-1.147 4.578-2.375 1.254-1.293 2.651-2.81 3.073-4.762.41-1.888.74-3.906.001-5.924M207.099 98.481c-5.224-1.979-11.2-2.217-16.913-2.19-.988 1.201-3.047 5.277-3.839 7.915-.976 3.273-1.557 6.056-1.199 9.064 8.23 4.075 17.387 3.931 26.252 3.813 2.955-.053 6.042-.079 9.022.026 3.206.119 6.109 1.318 8.207 3.324 1.107-1.491 2.149-3.509 2.414-4.34-4.67-7.506-12.493-13.258-23.944-17.612"/>
  <path fill="#BA9653" d="M228.588 101.305c-3.402-6.939-6.345-12.928-14.366-14.986-3.746-.964-7.61-.753-11.503.633-3.536 1.24-6.939 3.456-9.867 6.358-.133.105-.238.225-.37.344-.237.264-.502.487-.738.791 15.171-.659 30.58 6.899 40.368 19.842a17.216 17.216 0 0 0 1.24-4.248c-1.927-2.943-3.352-5.886-4.764-8.734"/>
  <path fill="#ED174C" d="M83.619 21.715L60.058 47.309h-.172a15.63 15.63 0 0 0-4.155 3.363h5.672l16.648-18.508-5.013 18.508 5.251-.027 2.375-3.364-3.404.027 6.359-25.593"/>
  <path fill="#051922" d="M57.709 48.773c.027 0 .027-.014.027-.027.33-.277.659-.501 1.016-.752.025-.025.092-.052.119-.078.33-.199.659-.409 1.016-.606l.172-.014 4.036-4.393-.369.197s-4.196 2.164-6.795 4.209c-4.379 3.548-6.688 6.503-8.614 13.205h-9.472l-.989 2.124h12.203c1.214-4.867 2.915-8.508 4.96-11.12a16.51 16.51 0 0 1 2.69-2.745"/>
  <path fill="none" stroke="#051922" stroke-width=".459" d="M57.709 48.773c.027 0 .027-.014.027-.027.33-.277.659-.501 1.016-.752.025-.025.092-.052.119-.078.33-.199.659-.409 1.016-.606l.172-.014 4.036-4.393-.369.197s-4.196 2.164-6.795 4.209c-4.379 3.548-6.688 6.503-8.614 13.205h-9.472l-.989 2.124h12.203c1.214-4.867 2.915-8.508 4.96-11.12a16.51 16.51 0 0 1 2.69-2.745z"/>
  <path fill="#FFF" d="M64.227 42.784l1.307-1.425C49.637 47.138 47.473 57.27 46.681 59.036h-7.309l1.531 1.478h7.414c.844-1.861 1.582-10.884 15.91-17.73"/>
</svg>
